# xmcd
#
# Track frame offsets:
#	150
#	17575
#	37589
#	52988
#	69777
#	83787
#	101094
#	119213
#	134600
#	152095
#	172125
#	187020
#	204548
#	223170
#	239878
#	259978
#	276511
#	293121
#	312789
#	333167
#
# Disc length: 4672 seconds
#
# Revision: 0
# Processed by: cddbd v1.5.2PL0 Copyright (c) Steve Scherf et al.
# Submitted via: EasyCDDAExtractor 12.0.7.1
#
DISCID=35123e14
DTITLE=Various Artist - Новая игрушка #11
DYEAR=2002
DGENRE=Pop
TTITLE0=Тату - Простые движения
TTITLE1=Пропаганда - Холодно
TTITLE2=Банда Андрюха - Страшная
TTITLE3=Света - Вернись, моя любовь!
TTITLE4=Hi-Fi - СШ №7
TTITLE5=Лицей - Станешь взрослой
TTITLE6=Андрей Губин - Танцы
TTITLE7=Краски - Но он не знает ничего
TTITLE8=Игорек - Сказка
TTITLE9=Таня Буланова - Да это нет
TTITLE10=J.Jей Power - Она его не любит
TTITLE11=Гости из будущего - Он улетел
TTITLE12=Ночной патруль - Ты у меня одна
TTITLE13=Глюкоза - Шуга
TTITLE14=Иванушки Int. - Золотые облака
TTITLE15=Жасмин - Не отпускай меня
TTITLE16=Бонхэй - Растай
TTITLE17=Подъем - Мышонок (Remix)
TTITLE18=U-Key - Слез моих не увидишь
TTITLE19=Мурат Насыров - Мой маленький мальчик
EXTD=
EXTT0=
EXTT1=
EXTT2=
EXTT3=
EXTT4=
EXTT5=
EXTT6=
EXTT7=
EXTT8=
EXTT9=
EXTT10=
EXTT11=
EXTT12=
EXTT13=
EXTT14=
EXTT15=
EXTT16=
EXTT17=
EXTT18=
EXTT19=
PLAYORDER=
